# xmcd
#
# Track frame offsets: 
#        150
#        15261
#        36365
#        50038
#        70174
#        89832
#        106410
#        126711
#        146496
#        162520
#        178485
#
# Disc length: 2620 seconds
#
# Revision: 0
# Processed by: cddbd v1.5.2PL0 Copyright (c) Steve Scherf et al.
# Submitted via: ExactAudioCopy v1.3
#
DISCID=a90a3a0b
DTITLE=Katarina Pejak - Roads That Cross
DYEAR=2019
DGENRE=Blues
TTITLE0=Nature Of My Blues
TTITLE1=Sex Kills
TTITLE2=Cool Drifter
TTITLE3=Moonlight Rider
TTITLE4=Old Pain
TTITLE5=Chasing Summer
TTITLE6=Turtle Blues
TTITLE7=Down With Me
TTITLE8=She's Coming After You
TTITLE9=Roads That Cross
TTITLE10=The Harder You Kick
EXTD=
EXTT0=
EXTT1=
EXTT2=
EXTT3=
EXTT4=
EXTT5=
EXTT6=
EXTT7=
EXTT8=
EXTT9=
EXTT10=
PLAYORDER=
